#!OML:ASF F:\VICON\USERDATA\INSTALL\rory3\rory3.ASF
:FULLY-SPECIFIED
:DEGREES
2444
root 2.57215 17.8073 11.8616 -177.895 39.0747 184.131
lowerback 11.8923 2.38225 3.37687
upperback 0.565207 3.74774 0.797642
thorax -5.91157 1.79062 -1.68888
lowerneck -22.0093 -4.82128 -9.7879
upperneck 29.5426 -4.00898 4.57312
head 14.1178 -1.91892 2.83834
rclavicle 6.15301e-014 1.40143e-014
rhumerus -31.3279 -5.45188 -78.7441
rradius 39.6546
rwrist -0.112722
rhand -18.1612 10.4667
rfingers 7.12502
rthumb 8.11472 -19.3575
lclavicle 6.15301e-014 1.40143e-014
lhumerus -37.8438 2.14237 85.4136
lradius 32.2475
lwrist -7.65489
lhand -22.0142 21.0559
lfingers 7.12502
lthumb 4.39501 50.9903
rfemur 7.88779 -2.61684 24.752
rtibia 21.4102
rfoot -15.247 -11.4752
rtoes -17.5737
lfemur -21.9306 -2.10408 -18.0169
ltibia 21.8678
lfoot -4.90003 4.00947
ltoes 2.52572
2445
root 2.63272 17.8202 11.7517 -178.1 39.2098 183.883
lowerback 11.7904 2.47353 3.22526
upperback 0.60412 3.83662 0.715045
thorax -5.81277 1.83945 -1.69799
lowerneck -22.1014 -4.8518 -9.69331
upperneck 29.6284 -4.08873 4.60185
head 14.1797 -1.93701 2.82087
rclavicle 2.90536e-014 1.25731e-014
rhumerus -31.467 -5.6487 -78.7704
rradius 39.7016
rwrist -0.0554044
rhand -18.3258 10.1331
rfingers 7.12502
rthumb 7.95592 -19.6972
lclavicle 2.90536e-014 1.25731e-014
lhumerus -37.8245 1.96618 85.4993
lradius 32.2715
lwrist -7.09216
lhand -21.7328 21.3184
lfingers 7.12502
lthumb 4.6668 51.247
rfemur 8.19675 -2.2221 24.5003
rtibia 21.6905
rfoot -14.8557 -11.5729
rtoes -17.6824
lfemur -21.587 -1.8143 -18.3959
ltibia 22.0007
lfoot -4.22405 3.37429
ltoes 1.21947
2446
root 2.69205 17.8301 11.6422 -178.389 39.2025 183.473
lowerback 11.7151 2.53658 2.99655
upperback 0.604877 3.875 0.576957
thorax -5.77293 1.8621 -1.71644
lowerneck -22.0867 -4.87963 -9.59543
upperneck 29.6891 -4.16912 4.61779
head 14.2075 -1.95608 2.79782
rclavicle -1.21445e-014 1.18774e-014
rhumerus -31.6588 -5.92428 -78.8119
rradius 39.6939
rwrist -0.00128229
rhand -18.3347 10.067
rfingers 7.12502
rthumb 7.94727 -19.7636
lclavicle -1.21445e-014 1.18774e-014
lhumerus -37.7951 1.95622 85.4322
lradius 32.1996
lwrist -7.36938
lhand -21.8765 21.2129
lfingers 7.12502
lthumb 4.52801 51.1445
rfemur 8.48323 -1.85332 24.1496
rtibia 22.0666
rfoot -14.5389 -11.728
rtoes -17.6522
lfemur -21.2792 -1.72338 -18.8624
ltibia 22.0428
lfoot -3.53673 2.72265
ltoes 0.677963
2447
root 2.75246 17.841 11.5354 -178.556 39.0867 183.159
lowerback 11.6623 2.57156 2.80681
upperback 0.51403 3.88401 0.465871
thorax -5.84333 1.86533 -1.72797
lowerneck -22.0219 -4.93597 -9.57847
upperneck 29.8395 -4.28671 4.7242
head 14.2726 -1.98494 2.82216
rclavicle -1.03803e-014 -7.23079e-015
rhumerus -31.9554 -6.27491 -78.817
rradius 39.5712
rwrist 0.0813655
rhand -18.3366 10.1293
rfingers 7.12502
rthumb 7.94543 -19.7014
lclavicle -1.03803e-014 -7.23079e-015
lhumerus -37.8226 2.01715 85.2443
lradius 32.0777
lwrist -7.84539
lhand -22.5645 20.3111
lfingers 7.12502
lthumb 3.8637 50.2558
rfemur 8.60206 -1.56923 23.9171
rtibia 22.6321
rfoot -14.0811 -11.9528
rtoes -18.1742
lfemur -21.0223 -1.64106 -19.2274
ltibia 21.9671
lfoot -3.07384 1.81544
ltoes 0.663972
2448
root 2.81501 17.8553 11.4242 -178.773 39.0846 182.895
lowerback 11.6211 2.59461 2.602
upperback 0.458686 3.88198 0.431822
thorax -5.88975 1.86659 -1.64836
lowerneck -21.9113 -4.98458 -9.80197
upperneck 29.9689 -4.35109 4.96827
head 14.3263 -1.99967 2.95435
rclavicle -5.88651e-014 1.98785e-016
rhumerus -32.2399 -6.28531 -78.8461
rradius 39.4642
rwrist 0.0506563
rhand -18.5604 10.004
rfingers 7.12502
rthumb 7.72942 -19.8348
lclavicle -5.88651e-014 1.98785e-016
lhumerus -37.8387 2.20181 85.129
lradius 31.9203
lwrist -7.95242
lhand -22.6204 20.2985
lfingers 7.12502
lthumb 3.80972 50.2442
rfemur 8.63617 -1.36997 23.6268
rtibia 23.4334
rfoot -13.4608 -11.8852
rtoes -19.2865
lfemur -20.5669 -1.38893 -19.5788
ltibia 21.7814
lfoot -2.81808 0.699479
ltoes 1.14358
2449
root 2.87684 17.8669 11.3082 -179.076 39.0301 182.559
lowerback 11.4979 2.56478 2.41713
upperback 0.483987 3.80907 0.373591
thorax -5.80489 1.83667 -1.58666
lowerneck -21.8051 -5.00557 -9.94913
upperneck 29.993 -4.38217 5.1215
head 14.3263 -2.00701 3.03887
rclavicle 5.77438e-014 -9.98893e-015
rhumerus -32.3747 -6.30682 -78.8986
rradius 39.2599
rwrist 0.0733924
rhand -18.5162 10.0664
rfingers 7.12502
rthumb 7.77211 -19.7707
lclavicle 5.77438e-014 -9.98893e-015
lhumerus -37.8288 2.29733 85.1047
lradius 31.8137
lwrist -7.7325
lhand -21.9347 21.3213
lfingers 7.12502
lthumb 4.47187 51.2541
rfemur 8.57171 -1.32279 23.2215
rtibia 24.4551
rfoot -12.7939 -11.7794
rtoes -20.4795
lfemur -19.9796 -1.26511 -19.993
ltibia 21.5449
lfoot -2.51426 -0.383062
ltoes 2.06506
